<svg width="38" height="25" viewBox="0 0 38 25" fill="none" xmlns="http://www.w3.org/2000/svg">
<g clip-path="url(#clip0_806_88)">
<path d="M22.9598 5.09947L14.7881 5.12634L15.0413 19.9005L23.213 19.8737L22.9598 5.09947Z" fill="#FF5F00"/>
<path d="M15.3243 12.5441C15.2725 9.53908 16.6349 6.86914 18.7697 5.13743C17.1573 3.88836 15.1363 3.13714 12.9457 3.14431C7.75619 3.1613 3.63002 7.38209 3.71951 12.5821C3.809 17.7821 8.07997 21.9754 13.2695 21.9584C15.4601 21.9513 17.455 21.1869 19.0242 19.9274C16.8305 18.236 15.376 15.5491 15.3243 12.5441Z" fill="#EB001B"/>
<path d="M34.2808 12.4179C34.3702 17.6179 30.2441 21.8387 25.0545 21.8557C22.864 21.8629 20.8429 21.1117 19.2306 19.8626C21.3914 18.1308 22.7277 15.4609 22.676 12.4559C22.6243 9.45087 21.1702 6.79016 18.976 5.07261C20.5452 3.81313 22.5402 3.04876 24.7307 3.04159C29.9203 3.0246 34.1917 7.24403 34.2808 12.4179Z" fill="#F79E1B"/>
</g>
<defs>
<clipPath id="clip0_806_88">
<rect width="38" height="25" fill="white"/>
</clipPath>
</defs>
</svg>
