<svg width="45" height="30" viewBox="0 0 45 30" fill="none" xmlns="http://www.w3.org/2000/svg">
<g clip-path="url(#clip0_806_89)">
<path d="M30.2392 9.40509C30.2392 9.52541 30.2392 9.64574 30.1188 9.76606C29.1563 14.5789 26.0279 16.1431 21.937 16.1431H19.8916C19.4103 16.1431 18.929 16.504 18.929 16.9853L17.8461 23.7233L17.6055 25.6484C17.6055 26.0094 17.8461 26.25 18.0867 26.25H21.8167C22.298 26.25 22.6589 25.8891 22.6589 25.5281V25.2875L23.3809 20.9559V20.7153C23.5012 20.234 23.8622 19.9933 24.2231 19.9933H24.8247C28.4343 19.9933 31.2017 18.5495 31.9236 14.3382C32.2846 12.5334 32.044 11.0896 31.2017 10.127C30.9611 9.88638 30.6001 9.64573 30.2392 9.40509Z" fill="#2199D6"/>
<path d="M29.2763 9.04413C29.156 9.04413 29.0357 8.92381 28.795 8.92381C28.6747 8.92381 28.434 8.80349 28.3137 8.80349C27.7121 8.68316 27.1105 8.68317 26.5089 8.68317H20.9742C20.8538 8.68317 20.7335 8.68316 20.6132 8.80349C20.3726 8.92381 20.1319 9.16445 20.1319 9.40509L18.9287 16.865V17.1056C19.049 16.6243 19.41 16.2634 19.8913 16.2634H21.9367C26.0276 16.2634 29.156 14.5789 30.1185 9.88638C30.1185 9.76605 30.1185 9.64573 30.2389 9.52541C29.9982 9.40509 29.7576 9.28477 29.5169 9.16445C29.3966 9.04413 29.2763 9.04413 29.2763 9.04413Z" fill="#252C5E"/>
<path d="M20.1323 9.40508C20.1323 9.16444 20.373 8.92379 20.6136 8.80347C20.7339 8.80347 20.8543 8.68315 20.9746 8.68315H26.5093C27.1109 8.68315 27.8329 8.68315 28.3141 8.80347C28.4345 8.80347 28.6751 8.80348 28.7954 8.9238C28.9158 8.9238 29.0361 9.04412 29.2767 9.04412C29.397 9.04412 29.397 9.04412 29.5174 9.16444C29.758 9.28476 29.9986 9.40508 30.2393 9.5254C30.4799 7.72059 30.2393 6.51738 29.2767 5.43449C28.1938 4.23128 26.2687 3.75 23.8623 3.75H16.7634C16.2821 3.75 15.8008 4.11096 15.8008 4.59224L12.9131 23.1217C12.9131 23.4826 13.1537 23.8436 13.5147 23.8436H17.8462L18.9291 16.865L20.1323 9.40508Z" fill="#263577"/>
</g>
<defs>
<clipPath id="clip0_806_89">
<rect width="45" height="30" fill="white"/>
</clipPath>
</defs>
</svg>
