<svg width="18" height="14" viewBox="0 0 18 14" fill="none" xmlns="http://www.w3.org/2000/svg">
<path d="M3.79124 0.434327C3.74185 0.378644 3.68189 0.333319 3.61484 0.30098C3.5478 0.26864 3.475 0.249928 3.40068 0.245929C3.32635 0.241931 3.25196 0.252724 3.18184 0.277685C3.11171 0.302645 3.04724 0.341275 2.99215 0.391337C2.93706 0.441399 2.89246 0.501897 2.86093 0.569323C2.82939 0.63675 2.81156 0.709765 2.80845 0.784136C2.80534 0.858507 2.81703 0.932756 2.84282 1.00258C2.86862 1.0724 2.90802 1.13641 2.95874 1.19089L4.31156 2.67941C1.75781 4.24667 0.659525 6.66261 0.611009 6.7723C0.579026 6.84423 0.5625 6.92208 0.5625 7.00081C0.5625 7.07954 0.579026 7.15739 0.611009 7.22933C0.635618 7.28487 1.23117 8.60534 2.55515 9.92933C4.31929 11.6928 6.54749 12.6251 8.99999 12.6251C10.2604 12.6323 11.5081 12.3728 12.6612 11.8636L14.208 13.5659C14.2574 13.6216 14.3174 13.6669 14.3844 13.6992C14.4515 13.7316 14.5243 13.7503 14.5986 13.7543C14.6729 13.7583 14.7473 13.7475 14.8174 13.7225C14.8876 13.6976 14.952 13.6589 15.0071 13.6089C15.0622 13.5588 15.1068 13.4983 15.1384 13.4309C15.1699 13.3635 15.1877 13.2905 15.1908 13.2161C15.1939 13.1417 15.1823 13.0675 15.1565 12.9976C15.1307 12.9278 15.0913 12.8638 15.0405 12.8093L3.79124 0.434327ZM7.11913 5.76683L10.0491 8.99065C9.60784 9.22277 9.10203 9.30177 8.61105 9.21526C8.12006 9.12875 7.67172 8.88162 7.33641 8.51268C7.00111 8.14373 6.79783 7.67388 6.7585 7.17689C6.71918 6.67989 6.84603 6.18391 7.11913 5.76683ZM8.99999 11.5001C6.83577 11.5001 4.94507 10.7133 3.37992 9.16222C2.73748 8.52377 2.19109 7.79548 1.75781 7.00011C2.08757 6.38206 3.14015 4.65237 5.0871 3.52808L6.35273 4.91675C5.86275 5.54429 5.61039 6.32485 5.64027 7.12046C5.67015 7.91608 5.98035 8.67551 6.51602 9.26453C7.05169 9.85355 7.77835 10.2342 8.56756 10.3393C9.35678 10.4443 10.1577 10.267 10.8288 9.83862L11.8645 10.9777C10.9505 11.3284 9.97901 11.5055 8.99999 11.5001ZM9.42187 4.79019C9.27529 4.76221 9.14584 4.67716 9.06197 4.55374C8.97811 4.43032 8.94671 4.27863 8.97468 4.13206C9.00265 3.98549 9.08771 3.85603 9.21113 3.77217C9.33455 3.6883 9.48623 3.6569 9.63281 3.68487C10.3497 3.82386 11.0025 4.19088 11.4938 4.73119C11.985 5.27149 12.2885 5.95614 12.3588 6.683C12.3727 6.83153 12.327 6.97949 12.2318 7.09435C12.1366 7.2092 11.9997 7.28152 11.8512 7.29542C11.8336 7.29645 11.816 7.29645 11.7984 7.29542C11.6578 7.29602 11.5221 7.24395 11.418 7.14947C11.3139 7.05499 11.2489 6.92494 11.2359 6.78495C11.1886 6.30148 10.9865 5.8462 10.6596 5.4868C10.3328 5.12741 9.89869 4.88309 9.42187 4.79019ZM17.3869 7.22933C17.3573 7.29542 16.6451 8.87253 15.0412 10.309C14.9864 10.3597 14.9221 10.3989 14.852 10.4244C14.7819 10.45 14.7074 10.4613 14.6329 10.4578C14.5583 10.4543 14.4852 10.4359 14.4178 10.4039C14.3505 10.3718 14.2901 10.3267 14.2403 10.2711C14.1906 10.2155 14.1524 10.1505 14.1279 10.08C14.1035 10.0095 14.0934 9.93485 14.0981 9.86038C14.1028 9.7859 14.1223 9.71311 14.1554 9.64625C14.1885 9.57938 14.2346 9.51977 14.291 9.47089C15.0778 8.76398 15.7388 7.92849 16.2457 7.00011C15.8115 6.20401 15.2639 5.47523 14.6201 4.83659C13.0549 3.28691 11.1642 2.50011 8.99999 2.50011C8.54399 2.49955 8.0887 2.53647 7.63874 2.6105C7.56557 2.62344 7.49056 2.62175 7.41804 2.60554C7.34553 2.58932 7.27694 2.5589 7.21625 2.51603C7.15556 2.47316 7.10396 2.41868 7.06444 2.35576C7.02492 2.29283 6.99826 2.2227 6.986 2.14941C6.97374 2.07612 6.97612 2.00113 6.993 1.92877C7.00989 1.8564 7.04095 1.7881 7.08438 1.72781C7.12781 1.66752 7.18276 1.61643 7.24605 1.57749C7.30934 1.53856 7.37972 1.51255 7.45312 1.50097C7.9644 1.41655 8.48178 1.37445 8.99999 1.37511C11.4525 1.37511 13.6807 2.30745 15.4448 4.07159C16.7688 5.39558 17.3644 6.71675 17.389 6.7723C17.421 6.84423 17.4375 6.92208 17.4375 7.00081C17.4375 7.07954 17.421 7.15739 17.389 7.22933H17.3869Z" fill="#8B8B8B"/>
</svg>
