<svg width="1428" height="137" viewBox="0 0 1428 137" fill="none" xmlns="http://www.w3.org/2000/svg">
<path d="M0.602539 3.12793H55.0605C82.5215 3.12793 101.447 21.4043 101.447 48.958C101.447 76.4189 81.8721 94.7881 53.6689 94.7881H28.6201V137H0.602539V3.12793ZM28.6201 25.3008V72.8936H47.5459C63.5957 72.8936 72.9658 64.3584 72.9658 49.0508C72.9658 33.8359 63.6885 25.3008 47.6387 25.3008H28.6201ZM115.734 137V37.5469H141.896V55.4521H142.453C145.979 42.835 154.421 35.9697 166.11 35.9697C169.265 35.9697 171.955 36.4336 173.811 36.9902V60.833C171.584 59.9053 167.873 59.2559 163.977 59.2559C150.617 59.2559 142.824 67.4199 142.824 81.4287V137H115.734ZM220.939 119.002C232.722 119.002 242.463 111.302 242.463 100.54V93.3037L221.496 94.6025C211.384 95.3447 205.632 99.8906 205.632 106.941C205.632 114.363 211.755 119.002 220.939 119.002ZM212.033 138.577C193.107 138.577 178.728 126.331 178.728 108.426C178.728 90.335 192.644 79.8516 217.414 78.3672L242.463 76.8828V70.2959C242.463 61.0186 235.969 55.6377 225.764 55.6377C215.651 55.6377 209.25 60.6475 207.951 67.9766H183.181C184.201 48.6797 200.622 35.4131 226.97 35.4131C252.482 35.4131 269.089 48.5869 269.089 68.626V137H242.927V121.785H242.37C236.804 132.361 224.465 138.577 212.033 138.577ZM284.953 66.7705C284.953 47.8447 301.374 35.4131 326.887 35.4131C351.843 35.4131 368.078 48.0303 368.449 67.3271H343.493C342.937 59.3486 336.535 54.4316 326.516 54.4316C317.146 54.4316 311.022 58.6992 311.022 65.1006C311.022 70.0176 315.29 73.3574 324.011 75.3984L343.029 79.4805C362.976 83.9336 371.047 91.8193 371.047 106.663C371.047 126.238 353.049 139.134 326.794 139.134C300.261 139.134 283.933 126.331 282.448 106.941H308.889C310.188 115.291 316.774 120.115 327.536 120.115C337.834 120.115 344.05 116.033 344.05 109.539C344.05 104.529 340.71 101.746 331.804 99.6123L313.435 95.5303C294.602 91.2627 284.953 81.4287 284.953 66.7705ZM523.566 37.5469L497.219 137H468.366L450.368 66.6777H449.812L431.906 137H403.425L376.984 37.5469H404.26L419.289 111.302H419.846L437.473 37.5469H463.449L481.169 111.302H481.726L496.848 37.5469H523.566ZM571.066 119.002C582.849 119.002 592.59 111.302 592.59 100.54V93.3037L571.623 94.6025C561.511 95.3447 555.759 99.8906 555.759 106.941C555.759 114.363 561.882 119.002 571.066 119.002ZM562.16 138.577C543.234 138.577 528.854 126.331 528.854 108.426C528.854 90.335 542.771 79.8516 567.541 78.3672L592.59 76.8828V70.2959C592.59 61.0186 586.096 55.6377 575.891 55.6377C565.778 55.6377 559.377 60.6475 558.078 67.9766H533.308C534.328 48.6797 550.749 35.4131 577.097 35.4131C602.609 35.4131 619.216 48.5869 619.216 68.626V137H593.054V121.785H592.497C586.931 132.361 574.592 138.577 562.16 138.577ZM636.75 137V37.5469H662.912V55.2666H663.469C668.757 42.9277 679.24 35.6914 694.548 35.6914C716.628 35.6914 729.06 49.6074 729.06 72.8936V137H701.97V78.5527C701.97 65.5645 695.847 58.1426 683.693 58.1426C671.54 58.1426 663.84 67.0488 663.84 79.9443V137H636.75ZM753.459 14.6318H780.549V37.5469H798.918V57.957H780.549V105.55C780.549 113.157 784.26 116.775 792.238 116.775C794.65 116.775 797.155 116.59 798.825 116.312V136.258C796.042 136.907 791.403 137.371 785.93 137.371C762.551 137.371 753.459 129.578 753.459 110.188V57.957H739.45V37.5469H753.459V14.6318ZM857.922 139.134C827.863 139.134 808.659 119.837 808.659 87.1807C808.659 54.9883 828.142 35.4131 857.922 35.4131C887.702 35.4131 907.185 54.8955 907.185 87.1807C907.185 119.93 887.98 139.134 857.922 139.134ZM857.922 118.445C871.188 118.445 879.631 107.22 879.631 87.2734C879.631 67.5127 871.096 56.1016 857.922 56.1016C844.748 56.1016 836.12 67.5127 836.12 87.2734C836.12 107.22 844.562 118.445 857.922 118.445ZM956.169 98.8701H983.166C984.465 109.91 995.969 117.146 1010.81 117.146C1025.75 117.146 1035.95 110.003 1035.95 100.169C1035.95 91.4482 1029.55 86.624 1013.41 83.0059L995.969 79.2021C971.291 73.9141 959.138 61.3896 959.138 41.8145C959.138 17.1367 980.476 0.808594 1010.35 0.808594C1041.52 0.808594 1061.1 16.8584 1061.56 41.0723H1035.3C1034.38 29.7539 1024.45 22.8887 1010.44 22.8887C996.618 22.8887 987.341 29.4756 987.341 39.4023C987.341 47.6592 993.835 52.2979 1009.24 55.8232L1025.47 59.2559C1052.28 65.0078 1063.97 76.5117 1063.97 96.9219C1063.97 122.898 1042.91 139.319 1009.7 139.319C977.507 139.319 957.004 124.012 956.169 98.8701ZM1117.32 119.002C1129.1 119.002 1138.84 111.302 1138.84 100.54V93.3037L1117.87 94.6025C1107.76 95.3447 1102.01 99.8906 1102.01 106.941C1102.01 114.363 1108.13 119.002 1117.32 119.002ZM1108.41 138.577C1089.48 138.577 1075.1 126.331 1075.1 108.426C1075.1 90.335 1089.02 79.8516 1113.79 78.3672L1138.84 76.8828V70.2959C1138.84 61.0186 1132.35 55.6377 1122.14 55.6377C1112.03 55.6377 1105.63 60.6475 1104.33 67.9766H1079.56C1080.58 48.6797 1097 35.4131 1123.35 35.4131C1148.86 35.4131 1165.47 48.5869 1165.47 68.626V137H1139.3V121.785H1138.75C1133.18 132.361 1120.84 138.577 1108.41 138.577ZM1183.65 137V3.12793H1210.74V137H1183.65ZM1267.42 119.002C1279.21 119.002 1288.95 111.302 1288.95 100.54V93.3037L1267.98 94.6025C1257.87 95.3447 1252.12 99.8906 1252.12 106.941C1252.12 114.363 1258.24 119.002 1267.42 119.002ZM1258.52 138.577C1239.59 138.577 1225.21 126.331 1225.21 108.426C1225.21 90.335 1239.13 79.8516 1263.9 78.3672L1288.95 76.8828V70.2959C1288.95 61.0186 1282.45 55.6377 1272.25 55.6377C1262.14 55.6377 1255.73 60.6475 1254.44 67.9766H1229.67C1230.69 48.6797 1247.11 35.4131 1273.45 35.4131C1298.97 35.4131 1315.57 48.5869 1315.57 68.626V137H1289.41V121.785H1288.85C1283.29 132.361 1270.95 138.577 1258.52 138.577ZM1361.22 77.4395L1394.99 37.5469H1425.7L1387.75 80.2227L1427.55 137H1396.38L1367.9 96.5508L1360.85 104.158V137H1333.76V3.12793H1360.85V77.4395H1361.22Z" fill="#5D8736"/>
</svg>
